<svg xmlns="http://www.w3.org/2000/svg" viewBox="0 0 512 512">
<defs><linearGradient id="g" x1="0" y1="0" x2="1" y2="1"><stop stop-color="#9b68ff"/><stop offset="1" stop-color="#ff83bb"/></linearGradient></defs>
<rect width="512" height="512" rx="118" fill="#171022"/><path d="M120 184 74 94l108 50c22-18 47-28 74-28s52 10 74 28l108-50-46 90c25 31 40 70 40 112 0 97-79 176-176 176S80 393 80 296c0-42 15-81 40-112Z" fill="url(#g)"/><path d="M126 195 98 133l76 36M386 195l28-62-76 36" fill="none" stroke="#fff8ff" stroke-width="15" stroke-linecap="round"/><ellipse cx="256" cy="300" rx="112" ry="96" fill="#fff8ff"/><circle cx="215" cy="286" r="13" fill="#171022"/><circle cx="297" cy="286" r="13" fill="#171022"/><path d="m256 309-14 18h28Z" fill="#ff83bb"/><path d="M216 350c27 20 53 20 80 0" fill="none" stroke="#171022" stroke-width="12" stroke-linecap="round"/><path d="M216 154c22-35 58-35 80 0-22 24-58 24-80 0Z" fill="#171022"/><circle cx="256" cy="154" r="11" fill="#ff83bb"/></svg>
